<?xml version="1.0" encoding="UTF-8" standalone="no"?>
<svg width="39px" height="28px" viewBox="0 0 39 28" version="1.1" xmlns="http://www.w3.org/2000/svg" xmlns:xlink="http://www.w3.org/1999/xlink" xmlns:sketch="http://www.bohemiancoding.com/sketch/ns">
    <title>Slice 1</title>
    <description>Created with Sketch (http://www.bohemiancoding.com/sketch)</description>
    <defs></defs>
    <g id="Page-1" stroke="none" stroke-width="1" fill="none" fill-rule="evenodd" sketch:type="MSPage">
        <g id="listview" sketch:type="MSLayerGroup" fill="#001A33">
            <path d="M38.5,3.5 L38.5,2.5 C38.5,1.03 38.02,0.5 36.5,0.5 L2.5,0.5 C0.97,0.5 0.5,1.02 0.5,2.5 L0.5,3.5 C0.5,5.05 1.02,5.5 2.5,5.5 L36.5,5.5 C38,5.5 38.5,5.02 38.5,3.5 L38.5,3.5 Z M38.5,14.5 L38.5,13.5 C38.5,12.03 38.02,11.5 36.5,11.5 L2.5,11.5 C0.97,11.5 0.5,12.02 0.5,13.5 L0.5,14.5 C0.5,16.05 1.02,16.5 2.5,16.5 L36.5,16.5 C38,16.5 38.5,16.02 38.5,14.5 L38.5,14.5 Z M38.5,25.5 L38.5,24.5 C38.5,23.029 38.02,22.5 36.5,22.5 L2.5,22.5 C0.97,22.5 0.5,23.02 0.5,24.5 L0.5,25.5 C0.5,27.05 1.02,27.5 2.5,27.5 L36.5,27.5 C38,27.5 38.5,27.02 38.5,25.5 L38.5,25.5 Z" id="Shape" sketch:type="MSShapeGroup"></path>
        </g>
    </g>
</svg>